<svg width="28" height="28" viewBox="0 0 28 28" fill="none" xmlns="http://www.w3.org/2000/svg">
<path fill-rule="evenodd" clip-rule="evenodd" d="M14.4703 24.8401C15.1766 25.563 15.1766 26.735 14.4703 27.4578C13.764 28.1807 12.6188 28.1807 11.9125 27.4578L0.52924 15.8077C-0.176415 15.0855 -0.176415 13.9145 0.52924 13.1923L11.9125 1.54215C12.6188 0.819282 13.764 0.819282 14.4703 1.54215C15.1766 2.26502 15.1766 3.43703 14.4703 4.1599L4.36708 14.5L14.4703 24.8401Z" fill="#30313D"/>
<path fill-rule="evenodd" clip-rule="evenodd" d="M27.4703 24.7231C28.1766 25.4727 28.1766 26.6881 27.4703 27.4378C26.764 28.1874 25.6188 28.1874 24.9125 27.4378L13.5292 15.3561C12.8236 14.6071 12.8236 13.3929 13.5292 12.6439L24.9125 0.562233C25.6188 -0.187411 26.764 -0.187411 27.4703 0.562233C28.1766 1.31188 28.1766 2.52729 27.4703 3.27693L17.3671 14L27.4703 24.7231Z" fill="#30313D"/>
</svg>
