<svg width="16" height="16" viewBox="0 0 16 16" fill="none" xmlns="http://www.w3.org/2000/svg">
<g clip-path="url(#clip0_62_32014)">
<path fill-rule="evenodd" clip-rule="evenodd" d="M6.93514 6.26719L6.68996 6.92767C6.53481 7.34731 6.29073 7.72842 5.97445 8.04487C5.65818 8.36131 5.2772 8.60561 4.85764 8.76099L4.19617 9.00617L4.85664 9.25134C5.27628 9.4065 5.65739 9.65058 5.97384 9.96686C6.29029 10.2831 6.53458 10.6641 6.68996 11.0837L6.93514 11.7441L7.17932 11.0837C7.33458 10.6639 7.57882 10.2828 7.89527 9.9663C8.21172 9.64984 8.5929 9.4056 9.01264 9.25034L9.67312 9.00617L9.01264 8.76099C8.593 8.60584 8.21189 8.36175 7.89544 8.04548C7.57899 7.7292 7.3347 7.34822 7.17932 6.92867L6.93514 6.26819V6.26719ZM7.96689 3.29005C7.61263 2.33135 6.25765 2.33135 5.9024 3.29005L4.81361 6.23417C4.75852 6.38309 4.67186 6.51833 4.55958 6.63061C4.4473 6.74289 4.31206 6.82954 4.16314 6.88464L1.21902 7.97342C0.260327 8.32868 0.260327 9.68466 1.21902 10.0389L4.16314 11.1277C4.31206 11.1828 4.4473 11.2694 4.55958 11.3817C4.67186 11.494 4.75852 11.6292 4.81361 11.7782L5.9024 14.7223C6.25765 15.681 7.61363 15.681 7.96689 14.7223L9.05667 11.7782C9.11176 11.6292 9.19842 11.494 9.3107 11.3817C9.42298 11.2694 9.55822 11.1828 9.70714 11.1277L12.6513 10.0389C13.609 9.68366 13.609 8.32768 12.6513 7.97342L9.70714 6.88464C9.55822 6.82954 9.42298 6.74289 9.3107 6.63061C9.19842 6.51833 9.11176 6.38309 9.05667 6.23417L7.96689 3.29005ZM12.4391 2.38339L12.3761 2.55351C12.3008 2.7563 12.1826 2.94043 12.0296 3.09329C11.8766 3.24615 11.6923 3.36413 11.4894 3.43915L11.3193 3.5022L11.4894 3.56524C11.6924 3.64038 11.8767 3.75851 12.0298 3.91155C12.1828 4.06459 12.3009 4.24891 12.3761 4.45188L12.4391 4.62201L12.5022 4.45188C12.5773 4.24891 12.6954 4.06459 12.8485 3.91155C13.0015 3.75851 13.1858 3.64038 13.3888 3.56524L13.5589 3.5022L13.3888 3.43915C13.1858 3.36402 13.0015 3.24588 12.8485 3.09285C12.6954 2.93981 12.5773 2.75548 12.5022 2.55251L12.4391 2.38239V2.38339ZM12.9084 0.767226C12.873 0.671302 12.809 0.588543 12.7251 0.530093C12.6412 0.471642 12.5414 0.440308 12.4391 0.440308C12.3368 0.440308 12.237 0.471642 12.1531 0.530093C12.0692 0.588543 12.0052 0.671302 11.9698 0.767226L11.4374 2.20526C11.4123 2.27282 11.373 2.33418 11.322 2.38513C11.2711 2.43608 11.2097 2.47543 11.1422 2.50048L9.70314 3.03286C9.60721 3.06831 9.52446 3.1323 9.466 3.21621C9.40755 3.30013 9.37622 3.39993 9.37622 3.5022C9.37622 3.60446 9.40755 3.70427 9.466 3.78819C9.52446 3.8721 9.60721 3.93609 9.70314 3.97154L11.1412 4.50392C11.2087 4.52897 11.2701 4.56832 11.321 4.61927C11.372 4.67022 11.4113 4.73157 11.4364 4.79913L11.9688 6.23717C12.0042 6.33309 12.0682 6.41585 12.1521 6.4743C12.236 6.53275 12.3358 6.56409 12.4381 6.56409C12.5404 6.56409 12.6402 6.53275 12.7241 6.4743C12.808 6.41585 12.872 6.33309 12.9074 6.23717L13.4388 4.79913C13.464 4.73147 13.5035 4.67005 13.5546 4.6191C13.6057 4.56814 13.6673 4.52885 13.735 4.50392L15.1731 3.97154C15.269 3.93609 15.3518 3.8721 15.4102 3.78819C15.4687 3.70427 15.5 3.60446 15.5 3.5022C15.5 3.39993 15.4687 3.30013 15.4102 3.21621C15.3518 3.1323 15.269 3.06831 15.1731 3.03286L13.736 2.50148C13.6683 2.47655 13.6067 2.43726 13.5556 2.3863C13.5045 2.33534 13.465 2.27393 13.4398 2.20626L12.9084 0.767226Z" fill="#30313D"/>
</g>
<defs>
<clipPath id="clip0_62_32014">
<rect width="16" height="16" fill="white"/>
</clipPath>
</defs>
</svg>
