<svg width="24" height="24" viewBox="0 0 24 24" fill="none" xmlns="http://www.w3.org/2000/svg">
<g clip-path="url(#clip0_73_904)">
<path d="M12 21.0001C16.9706 21.0001 21 16.9707 21 12.0001C21 7.02956 16.9706 3.00012 12 3.00012C7.02944 3.00012 3 7.02956 3 12.0001C3 16.9707 7.02944 21.0001 12 21.0001Z" stroke="#610BA1" stroke-width="2" stroke-linecap="round" stroke-linejoin="round"/>
<path d="M9 9.00012H9.01" stroke="#610BA1" stroke-width="2" stroke-linecap="round" stroke-linejoin="round"/>
<path d="M15 9.00012H15.01" stroke="#610BA1" stroke-width="2" stroke-linecap="round" stroke-linejoin="round"/>
<path d="M8 13.0001C8 14.061 8.42143 15.0784 9.17157 15.8285C9.92172 16.5787 10.9391 17.0001 12 17.0001C13.0609 17.0001 14.0783 16.5787 14.8284 15.8285C15.5786 15.0784 16 14.061 16 13.0001M16 13.0001H8" stroke="#610BA1" stroke-width="2" stroke-linecap="round" stroke-linejoin="round"/>
</g>
<defs>
<clipPath id="clip0_73_904">
<rect width="24" height="24" fill="white"/>
</clipPath>
</defs>
</svg>
